<svg width="240" height="324" viewBox="0 0 240 324" fill="none" xmlns="http://www.w3.org/2000/svg">
<path fill-rule="evenodd" clip-rule="evenodd" d="M114.34 135.723C119.555 131.751 132.648 129.964 138.214 133.789C143.711 137.631 144.311 143.843 146.872 149.557C149.29 148.417 153.281 150.05 153.982 152.294C154.851 153.352 154.89 156.325 155.489 157.747C181.569 161.9 185.528 182.24 188.667 205.332C192.82 228.764 202.247 252.145 198.154 276.257C198.688 277.029 199.108 277.78 199.497 278.671C200.428 280.256 199.228 282.501 197.35 282.414C194.918 282.2 192.51 281.908 190.067 281.817C183.293 281.582 176.514 281.61 169.738 281.696L168.814 281.708C134.666 282.133 100.521 282.971 66.3712 283.194C65.1324 283.195 64.5258 282.084 64.6912 280.987C65.0244 278.78 65.3335 276.571 65.6561 274.363C57.5789 276.497 48.9922 277.034 40.9378 274.587C40.3743 274.013 42.2506 274.324 42.5483 274.237C35.1357 269.17 37.3494 258.495 38.006 250.807C42.089 224.462 43.5284 195.313 59.3035 172.832C66.1281 163.658 76.1335 156.394 87.6305 154.76L87.9494 154.716C91.3111 154.267 95.0577 154.123 97.9969 152.294C101.303 149.653 102.711 144.775 106.189 144.73C107.338 144.715 108.9 146.168 110.581 147.155C110.706 144.984 111.876 143.152 112.134 141.469L112.155 141.325C112.424 139.363 112.055 137.598 114.34 135.723ZM170.386 206.028C163.057 200.935 144.125 203.494 143.692 203.779C142.737 204.407 142.326 204.463 141.81 205.278C141.301 205.346 140.792 205.416 140.283 205.488C139.262 205.822 140.019 207.077 141.197 206.629C140.488 209.688 142.575 211.864 143.406 214.888C143.676 215.87 143.416 217.636 143.406 218.64C143.486 219.919 144.9 221.43 144.665 222.714C143.827 227.276 139.281 231.727 141.197 236.152C142.467 238.652 146.286 239.926 148.825 240.776C154.085 242.795 163.251 240.7 166.307 236.152C167.938 233.727 169.826 227.609 170.798 225.711L171.014 222.701C171.545 215.218 172.018 207.162 170.386 206.028Z" fill="white"/>
<path fill-rule="evenodd" clip-rule="evenodd" d="M104.912 144.288C105.418 143.84 106.167 144.403 105.845 145.009C105.123 146.37 104.381 147.659 103.412 148.862C102.824 149.592 102.194 150.282 101.556 150.964C103.194 152.381 104.598 154.141 105.925 155.791C107.621 157.9 109.225 160.099 111.129 162.029C113.007 163.933 115.083 165.264 117.594 166.151L118.101 166.327C120.623 167.213 123.319 168.409 124.741 170.798C125.021 171.269 124.457 171.851 123.982 171.557C121.512 170.027 118.609 169.719 115.92 168.708C113.322 167.732 111.058 166.229 109.057 164.31C107.06 162.395 105.383 160.216 103.634 158.083C101.904 155.974 100.041 154.172 97.9952 152.388C94.8377 154.513 91.2335 155.438 87.5686 156.346L87.1686 156.445C83.4993 157.354 79.8497 158.409 76.4073 159.992C73.3722 161.387 70.387 163.053 67.9147 165.323C65.2904 167.733 63.2478 170.81 61.3783 173.819C57.1965 180.552 54.2565 187.928 51.6683 195.394C48.9763 203.159 46.7246 211.08 44.9069 219.095C43.9823 223.172 43.2315 227.278 42.6144 231.413C42.3173 233.404 42.0535 235.4 41.8217 237.4C41.5743 239.536 41.5175 241.733 40.8626 243.786C40.5818 244.666 39.9188 245.032 39.2552 245L39.1205 246.687C38.9417 248.935 38.7751 251.184 38.7188 253.446C38.6255 257.208 38.6678 260.959 38.9383 264.712L38.9766 265.224C39.1891 267.964 39.664 271.042 41.7233 273.048C43.8558 275.125 47.1353 275.779 50.0096 275.816C56.704 275.903 63.1481 272.739 69.0721 269.963C75.1731 267.104 81.1073 263.931 86.8995 260.489C89.8492 258.736 92.767 256.925 95.6476 255.061C97.0612 254.146 98.4649 253.216 99.858 252.271C100.656 251.729 101.412 251.136 102.224 250.655C101.826 250.284 101.649 249.702 101.982 249.193C99.6338 247.153 98.6565 243.515 98.5422 240.57C98.4499 238.194 98.7995 235.824 99.0754 233.47C99.2147 232.282 99.3866 231.097 99.5652 229.916C99.6357 229.449 99.6896 228.949 99.772 228.456C93.4312 231.942 86.9128 235.047 80.2217 237.804C76.792 239.218 73.3183 240.489 69.7967 241.654L69.0829 241.889C65.7462 242.982 62.3296 244.014 58.8801 244.638C58.6957 244.672 58.5459 244.399 58.7428 244.313C62.1045 242.829 65.5826 241.577 68.9947 240.21L69.5554 239.982V239.982C69.491 239.978 69.4242 239.969 69.3545 239.953C67.3534 239.47 65.3679 238.725 63.4052 238.098C61.5837 237.516 59.5371 237.151 57.8345 236.273C57.7035 236.205 57.7769 236.023 57.9045 236.014C59.8181 235.881 61.8955 236.439 63.7718 236.768L64.4766 236.891C65.6574 237.099 66.8644 237.323 68.0394 237.615C68.0819 237.222 68.3018 236.826 68.6147 236.594C72.0577 234.043 71.7081 228.892 72.0763 225.093L72.3494 222.272C72.8297 217.336 73.3378 212.4 74.1097 207.501C74.1509 207.24 74.5555 207.315 74.5572 207.562C74.597 213.635 74.1388 219.68 73.9091 225.743L73.8735 226.738C73.7465 230.48 73.647 234.365 71.2914 237.244C71.6208 237.051 72.0662 237.051 72.333 237.369C72.6609 237.759 72.8502 238.197 72.8442 238.627C74.9728 237.735 77.092 236.819 79.2009 235.884C85.9811 232.879 92.6191 229.516 99.0816 225.878C99.7771 225.486 100.438 225.794 100.782 226.31L100.832 226.303C100.84 226.302 100.848 226.301 100.857 226.301L100.906 226.299C100.908 226.299 100.91 226.299 100.912 226.299C101.822 225.799 103.061 226.155 103.841 226.884C103.864 226.906 103.884 226.93 103.905 226.953C104.893 226.509 105.816 225.91 106.653 225.151C108.367 223.597 109.819 221.676 111.084 219.749C113.415 216.2 115.394 212.254 118.542 209.333C121.1 206.96 124.271 205.482 127.598 204.555C127.584 204.458 127.621 204.354 127.688 204.285C127.859 204.11 127.981 204.049 128.202 204.156C128.22 204.164 128.23 204.176 128.237 204.189L128.562 203.634C128.739 203.333 128.921 203.029 128.984 202.95C129.362 202.474 129.751 202.002 130.145 201.54C130.814 200.757 131.577 199.985 132.46 199.442C134.393 198.254 136.425 198.926 138.412 199.576C139.613 199.968 140.81 200.373 142.009 200.772L142.132 200.812C143.026 201.099 144.072 201.351 144.472 202.298C144.63 202.673 144.655 203.062 144.581 203.439C153.071 201.28 162.5 202.272 170.784 204.807C171.102 204.905 171.42 205.166 171.487 205.51C172.436 210.38 172.859 215.374 172.429 220.326C172.059 224.602 171.112 228.791 169.327 232.705L169.226 232.926C167.549 236.553 164.891 241.025 160.832 242.162C158.381 242.848 155.67 242.444 153.171 242.318C150.741 242.195 148.258 242.178 145.852 241.796C143.709 241.455 141.831 240.494 140.507 238.751C139.364 237.247 138.762 235.429 138.269 233.621C138.044 233.693 137.82 233.77 137.599 233.856C136.668 234.22 135.879 234.807 135.166 235.498C133.66 236.957 132.491 238.729 130.916 240.121C129.489 241.382 127.864 242.362 126.12 243.116C122.507 244.678 118.631 245.302 114.81 246.129L114.543 246.187C111.666 246.819 108.729 247.594 106.19 249.093C106.14 249.534 105.939 249.949 105.617 250.221C106.065 250.642 106.255 251.308 105.861 251.933C104.762 253.679 102.868 254.672 101.168 255.788L101.058 255.861C99.3852 256.97 97.6982 258.057 95.9975 259.122C92.5401 261.288 89.0104 263.334 85.4309 265.29C79.6737 268.437 73.7928 271.405 67.8055 274.097C68.1649 275.866 68.0336 277.689 68.3037 279.47L68.3451 279.724C68.4605 280.385 68.3046 280.937 67.8496 281.369L67.8015 281.413L67.8023 281.407L67.7597 281.447L67.7454 281.459L67.7502 281.455C67.6977 281.503 67.6436 281.548 67.5885 281.586L67.5182 281.631V281.631C67.08 281.897 66.5158 281.894 66.0671 281.659L66.0159 281.631L65.9297 281.582C65.3369 281.24 64.9281 280.395 65.174 279.724C65.7784 278.074 66.0068 276.312 66.565 274.651L66.1221 274.849V274.849L65.5385 275.104C59.2263 277.834 52.2146 280.134 45.337 278.272C42.2981 277.45 39.4578 275.709 37.9373 272.873C36.4412 270.082 36.2297 266.841 36.1502 263.736C36.0522 259.904 36.2576 256.014 36.7627 252.214C37.1018 249.664 37.5119 247.066 38.1444 244.542C37.819 244.255 37.5799 243.843 37.5167 243.333C37.2182 240.922 37.7407 238.416 38.0605 236.019C38.373 233.677 38.7182 231.34 39.1086 229.011C39.8969 224.307 40.8127 219.612 41.879 214.963C43.7766 206.688 46.2824 198.561 49.2993 190.627L49.5635 189.936C52.3513 182.685 55.5791 175.589 60.0738 169.219C62.2238 166.171 64.4966 163.408 67.5347 161.211C70.3809 159.154 73.5913 157.672 76.9044 156.54C80.2211 155.407 83.6301 154.647 87.0993 154.175C90.6226 153.695 94.3416 153.401 97.6283 151.955C97.2125 151.21 97.5693 150.203 98.269 149.74C100.624 148.184 102.801 146.159 104.912 144.288ZM180.294 211.967C180.392 211.817 180.627 211.912 180.583 212.089C179.438 216.783 178.363 221.487 177.661 226.27C176.393 234.904 176.627 243.65 176.73 252.348L176.735 252.797C176.789 257.482 176.863 262.167 177.017 266.85C177.096 269.217 177.25 271.607 177.166 273.975C177.12 275.26 176.778 276.475 176.657 277.744C176.551 278.854 176.645 279.98 176.698 281.092C176.734 281.831 175.644 281.799 175.569 281.092L175.475 280.177C175.351 279.019 175.199 277.868 174.82 276.76C174.364 275.427 174.145 274.118 173.987 272.718C173.744 270.573 173.636 268.407 173.543 266.248L173.479 264.754C173.088 255.728 173.102 246.66 173.734 237.644L173.781 237C174.407 228.478 175.493 219.269 180.294 211.967ZM155.88 158.253C155.581 158.13 155.686 157.678 156.017 157.757L156.62 157.9C161.034 158.958 165.368 160.104 169.489 162.072C173.611 164.042 177.102 166.982 179.876 170.597C185.267 177.625 187.508 186.166 189.276 194.698C191.242 204.18 193.032 213.696 195.014 223.174L195.383 224.94C197.217 233.768 198.949 242.601 200.226 251.533L200.317 252.181C201.604 261.367 202.379 270.87 200.974 280.08C200.696 281.902 197.666 281.448 197.784 279.648C198.126 274.444 198.371 269.267 198.135 264.052C197.897 258.835 197.408 253.641 196.679 248.47C196.066 244.118 195.151 239.82 194.342 235.503L194.215 234.821C193.537 231.149 192.838 227.481 192.141 223.813L191.099 218.32C189.538 210.096 187.946 201.864 186.147 193.692L186.04 193.211C184.28 185.348 181.684 177.112 176.404 170.868C171.045 164.532 163.374 161.341 155.88 158.253ZM136.409 241.652C136.537 241.364 136.988 241.396 137.127 241.652C137.67 242.654 137.73 243.933 137.833 245.065L137.844 245.181C137.974 246.562 138.09 247.948 138.161 249.333C138.295 251.962 138.359 254.587 138.351 257.22C138.342 259.917 138.288 262.612 138.143 265.306L138.103 266.027C137.971 268.368 137.748 270.979 136.636 273.026C136.232 273.77 135.133 273.551 134.899 272.799C134.132 270.335 134.526 267.414 134.722 264.891L134.875 262.922C135.026 260.953 135.171 258.984 135.285 257.012C135.442 254.315 135.571 251.616 135.695 248.918C135.736 248.041 135.78 247.165 135.826 246.288L135.897 244.974C135.957 243.874 135.952 242.668 136.409 241.652ZM50.18 245.143L50.5195 244.815C51.5617 243.795 52.8787 242.223 54.4194 242.321C55.0338 242.36 55.4252 242.87 55.2978 243.475C55.0257 244.767 53.7076 245.438 52.7588 246.227C51.7194 247.091 50.7397 248.015 49.762 248.948C48.8946 249.775 48.0604 250.625 47.2462 251.503L46.9418 251.833C46.6499 252.151 44.5717 254.032 44.7964 254.52L44.8086 254.542C44.8711 254.635 44.767 254.763 44.6633 254.731C43.7658 254.447 43.8218 253.678 44.1611 252.898C44.8131 251.4 45.9547 250.014 46.9517 248.735C47.946 247.458 49.0222 246.27 50.18 245.143V245.143ZM139.661 207.575C138.967 205.934 136.41 205.968 134.959 206.067C131.304 206.314 127.349 207.239 124.097 208.948C120.726 210.719 118.454 213.558 116.422 216.697L116.327 216.845C114.347 219.925 112.439 223.571 109.338 225.688C107.758 226.767 105.914 227.753 103.997 228.179C103.865 228.411 103.652 228.594 103.373 228.66L103.243 228.69C102.697 228.811 101.849 228.944 101.116 228.864C101.121 229.223 101.117 229.579 101.126 229.918C101.152 230.892 101.163 231.869 101.163 232.843C101.164 234.883 101.054 236.928 101.139 238.968C101.214 240.773 101.469 242.659 102.335 244.272C102.971 245.456 103.809 246.239 104.821 246.987C107.311 245.469 110.127 244.543 112.985 243.847C116.441 243.006 119.979 242.445 123.356 241.304C124.982 240.754 126.545 240.036 127.961 239.059C129.463 238.023 130.611 236.62 131.792 235.248L131.977 235.035C133.182 233.652 134.497 232.329 136.2 231.579C137.667 230.934 139.601 230.819 140.883 229.819C141.554 229.296 141.61 228.538 141.68 227.761C140.859 227.878 139.99 227.69 139.171 227.594L138.747 227.544C137.973 227.452 137.216 227.351 136.454 227.154C136.313 227.117 136.313 226.904 136.454 226.867C137.355 226.635 138.247 226.536 139.171 226.427L139.388 226.4C140.223 226.291 141.101 226.125 141.921 226.309C142.068 225.75 142.28 225.215 142.578 224.68C142.996 223.928 143.787 223.076 143.894 222.198C143.926 221.936 143.865 221.626 143.741 221.394L143.699 221.315C143.647 221.222 143.585 221.128 143.495 221.07C143.485 221.082 143.464 221.095 143.418 221.109C142.788 221.308 142.238 220.999 141.946 220.523C140.706 220.677 139.353 220.625 138.191 220.677L137.016 220.734C135.76 220.791 134.447 220.816 133.267 220.563C133.102 220.527 133.052 220.253 133.217 220.182C134.668 219.562 136.428 219.364 137.981 219.125C138.849 218.992 139.722 218.89 140.592 218.773C141.172 218.695 141.787 218.566 142.387 218.535C143.892 216.661 143.081 213.704 140.986 212.897C140.224 213.233 139.538 213.038 138.704 212.966C137.872 212.895 137.038 212.846 136.203 212.85C134.529 212.857 132.755 213.298 131.097 213.108C130.828 213.077 130.577 212.718 130.845 212.499C132.114 211.463 133.933 211.126 135.543 210.905L135.877 210.86C136.417 210.789 137.074 210.686 137.755 210.625C137.909 210.324 138.185 210.097 138.6 210.04C138.724 210.023 138.848 210.014 138.972 210.003L138.97 209.991V209.991C139.982 209.942 139.938 208.231 139.661 207.575ZM70.3502 239.579C70.3324 239.606 70.3128 239.633 70.292 239.658L70.2598 239.695L70.4263 239.628L70.3502 239.579V239.579ZM157.327 203.908C153.066 203.45 148.799 203.547 144.525 203.67C144.183 204.788 142.993 205.741 141.84 205.777C142.743 207.152 142.836 209.013 142.203 210.471C143.547 211.006 144.705 211.968 145.409 213.338C146.384 215.236 146.256 217.349 145.292 219.103C146.115 219.848 146.6 221.058 146.552 222.198C146.497 223.469 145.74 224.555 145.11 225.608C144.43 226.746 144.408 227.748 144.199 229.023C143.893 230.889 142.635 232.02 141.017 232.727L141.103 233.066C141.52 234.691 142.039 236.405 143.232 237.593C144.766 239.122 147.146 239.108 149.173 239.204L149.271 239.209C151.127 239.302 152.982 239.411 154.838 239.516L156.229 239.594C158.366 239.711 160.417 239.725 162.161 238.313C165.009 236.006 166.96 232.19 168.196 228.811C170.789 221.719 170.82 213.936 169.63 206.549C165.638 205.262 161.496 204.356 157.327 203.908ZM121.889 215.675L121.921 215.677C122.798 215.777 123.401 216.488 123.615 217.331C123.927 218.556 123.774 219.664 124.525 220.77C125.296 221.908 125.771 222.819 125.883 224.224C125.929 224.802 125.908 225.379 126.037 225.945L126.13 226.341C126.229 226.764 126.31 227.171 126.261 227.625C126.216 228.039 126.014 228.362 125.599 228.495C124.246 228.928 123.202 227.93 122.852 226.669C122.55 225.58 122.954 224.282 122.528 223.259C122.292 222.692 121.856 222.218 121.611 221.647C121.367 221.081 121.245 220.49 121.206 219.875C121.131 218.712 122.16 217.314 121.586 216.26C121.464 216.035 121.602 215.668 121.889 215.675ZM103.921 203.67C104.837 203.484 105.876 203.057 106.779 203.412C107.244 203.595 107.473 204.161 107.081 204.555C106.4 205.238 105.41 205.276 104.492 205.437L104.411 205.451C103.326 205.652 102.24 205.843 101.151 206.023C99.1041 206.362 97.0518 206.662 94.9924 206.917C92.8772 207.179 90.7561 207.412 88.632 207.588L87.8097 207.655C86.0154 207.799 84.1485 207.907 82.388 207.632C82.1321 207.592 82.1733 207.219 82.388 207.154C84.3166 206.57 86.4323 206.414 88.4262 206.166C90.5461 205.903 92.6623 205.625 94.7731 205.296C96.8805 204.966 98.9852 204.613 101.082 204.222C102.03 204.046 102.976 203.862 103.921 203.67ZM136.974 201.795C136.17 201.51 135.286 201.089 134.415 201.23C132.913 201.473 131.576 202.937 130.387 203.901L130.984 203.785C134.039 203.198 138.084 202.565 140.648 204.508C140.655 204.497 140.66 204.486 140.668 204.475C140.875 204.16 141.114 203.915 141.376 203.646C141.401 203.622 141.425 203.598 141.449 203.573L141.59 203.423L141.267 203.311C140.575 203.066 139.756 202.75 139.626 202.704L139.617 202.701C138.735 202.402 137.852 202.106 136.974 201.795ZM111.875 137.74C111.75 136.123 114.266 136.136 114.391 137.74C114.663 141.242 113.875 144.711 112.179 147.782C112.167 147.804 112.153 147.824 112.14 147.845C113.2 148.397 114.273 148.927 115.37 149.4C116.772 150.006 118.201 150.557 119.656 151.025C120.972 151.449 122.593 151.616 123.699 152.497C126.031 154.356 125.155 158.212 124.706 160.712L124.636 161.106C124.413 162.392 124.251 163.712 124.793 164.947C125.372 166.265 126.543 167.243 127.587 168.187L127.798 168.378C128.723 169.221 129.78 170.246 130.459 171.389C131.078 170.108 131.923 169.061 132.816 167.882C133.453 167.041 132.999 166.763 132.542 165.942C132.101 165.151 131.886 164.308 132.024 163.405C132.278 161.739 133.609 160.536 134.934 159.631C136.499 158.564 138.246 157.773 139.863 156.78C143.187 154.739 146.425 152.406 149.341 149.815C149.422 149.744 149.561 149.838 149.497 149.935C147.193 153.441 144.491 156.47 141.171 159.042C139.825 160.084 138.411 160.949 136.987 161.858L136.578 162.121C136.006 162.491 135.293 162.987 135.035 163.617C134.775 164.251 135.329 164.73 135.628 165.256C136.576 166.924 136.118 168.481 134.995 169.896L134.942 169.961C133.825 171.338 132.979 172.618 132.574 174.377C131.705 178.156 132.916 182.091 134.184 185.638L134.234 185.778C134.92 187.69 135.649 189.588 136.245 191.53L136.409 192.067C136.949 193.855 137.392 195.617 136.786 197.455C136.58 198.08 135.728 198.228 135.374 197.639C134.125 195.565 133.814 193.069 133.032 190.789C132.269 188.566 131.393 186.384 130.657 184.152C129.708 181.279 129.073 178.186 129.418 175.172C129.408 175.154 129.396 175.138 129.388 175.119L129.147 174.591C128.488 173.16 127.852 171.911 126.655 170.77C125.406 169.58 124.05 168.527 123.067 167.087C120.932 163.959 122.253 160.479 122.51 157.059L122.54 156.639C122.587 155.929 122.612 154.964 122.149 154.472C121.627 153.919 120.404 153.778 119.712 153.533C117.923 152.9 116.161 152.162 114.482 151.276C112.884 150.433 111.336 149.501 109.895 148.41L109.164 147.86C108.011 146.99 106.816 146.04 106.044 144.855C105.955 144.719 106.106 144.499 106.268 144.564C107.557 145.088 108.735 145.921 109.942 146.645C109.961 146.601 109.982 146.556 110.007 146.512C111.5 143.809 112.114 140.814 111.875 137.74ZM153.069 156.258C153.583 154.848 155.925 154.957 155.831 156.632C155.76 157.919 155.214 159.08 154.714 160.248L154.661 160.373C154.145 161.59 153.55 162.733 152.838 163.849C151.477 165.981 149.882 167.96 148.179 169.828C146.635 171.521 144.609 172.557 142.274 172.385C141.29 172.312 140.296 172.062 139.434 171.57C138.41 170.986 137.298 169.232 135.992 169.657C135.865 169.698 135.747 169.513 135.857 169.425C137.365 168.21 139.077 170.094 140.521 170.548C142.697 171.232 144.93 170.476 146.33 168.716C147.792 166.879 149.138 164.822 150.367 162.821C150.991 161.805 151.56 160.751 152.052 159.665C152.549 158.568 152.661 157.376 153.069 156.258ZM149.562 147.584C149.498 147.389 149.74 147.204 149.911 147.315C150.902 147.96 151.761 148.813 152.675 149.561C153.689 150.39 154.711 151.203 155.748 152.003C157.261 153.169 155.507 155.316 154.175 154.042C152.353 152.299 150.358 150.02 149.562 147.584ZM144.121 140.761C144.523 139.208 146.904 139.849 146.557 141.384L146.546 141.43C145.889 143.966 146.825 146.547 148.823 148.191L148.897 148.251C150.161 149.263 148.37 151.032 147.118 150.03C144.385 147.842 143.249 144.125 144.121 140.761Z" fill="black"/>
<path fill-rule="evenodd" clip-rule="evenodd" d="M164.267 102.294C163.812 98.2964 164.401 89.9405 164.44 89.4328C164.69 86.2235 163.186 73.5503 160.345 74.718C155.578 70.9431 149.229 70.1095 143.293 69.7113C130.962 68.8841 117.844 70.7831 108.322 79.0849C103.613 83.3962 99.0285 89.6668 99.397 96.1958C95.1186 102.385 89.0871 110.874 94.4177 118.109C96.2297 120.421 99.1096 121.281 101.386 123.032C105.964 126.726 108.837 132.028 113.459 135.701C125.704 146.709 146.496 149.008 158.527 136.488C167.83 127.42 166.326 113.854 164.69 102.294C163.589 94.5222 165.154 110.093 164.267 102.294Z" fill="white"/>
<path fill-rule="evenodd" clip-rule="evenodd" d="M126.82 52.7584C130.118 52.0926 133.504 51.6784 136.872 51.8031L137.132 51.8131C139.665 51.9145 142.875 52.1386 145.085 53.6126C145.212 53.485 145.417 53.4195 145.602 53.508C148.229 54.7624 151.118 55.6693 153.884 56.5705C156.638 57.4672 159.494 58.0592 162.38 58.2978C163.465 58.3877 164.395 59.5605 163.707 60.6123C163.544 60.863 163.384 61.1162 163.226 61.37C163.491 61.3423 163.756 61.3138 164.022 61.287C164.895 61.1991 165.767 62.1313 165.715 62.9818C165.683 63.5167 165.625 64.0453 165.54 64.5676C165.873 64.5606 166.203 64.6105 166.523 64.7455C168.14 65.4288 168.027 67.3561 167.906 68.8225C167.739 70.8573 166.978 73.0127 165.565 74.5357C166.62 75.6315 167.367 76.9402 167.812 78.4945C168.135 79.6294 168.315 80.8384 168.226 82.0198L168.198 82.3735C168.088 83.6556 167.87 85.0751 166.948 85.9974C166.475 86.473 165.892 86.6463 165.336 86.5913C165.672 89.546 165.887 92.5176 166.09 95.4786L166.185 96.8938C166.638 103.737 166.978 110.625 166.889 117.48C166.806 123.886 165.541 130.104 161.613 135.305C158.036 140.042 152.901 143.533 147.091 144.861C143.96 145.577 140.763 145.628 137.594 145.171C136.058 144.949 134.512 144.609 133.054 144.072C131.44 143.476 130.28 142.599 129.194 141.285C128.681 140.661 128.928 139.334 129.951 139.458C131.497 139.646 132.91 139.872 134.392 140.33L134.605 140.397C136.082 140.87 137.611 141.223 139.155 141.373C142.318 141.68 145.529 141.371 148.559 140.412C153.492 138.848 157.741 135.363 160.464 130.983C163.696 125.793 164.062 119.9 164.015 113.932C163.965 107.382 163.752 100.829 163.405 94.2863L163.346 93.196C163.162 89.8292 162.984 86.4603 162.828 83.0913C162.78 82.0346 162.706 80.9694 162.572 79.9148C161.354 79.2004 160.261 78.2155 159.549 77.0002C158.119 77.592 156.615 78.0189 155.231 78.3592C152.025 79.148 148.697 79.3395 145.434 78.8455C144.554 79.2093 143.656 79.529 142.744 79.8042C142.498 79.9135 142.252 80.0209 142.006 80.1261C139.808 81.0666 137.579 81.8634 135.26 82.4467L134.69 82.5889C133.469 82.8899 132.143 83.1864 130.844 83.2794C130.631 83.3619 130.401 83.4316 130.149 83.4929C128.966 83.7803 127.739 83.8712 126.526 83.7698C125.345 83.6704 124.491 82.4763 125.142 81.3583C125.617 80.5425 126.097 79.7288 126.581 78.9172C124.897 79.6189 123.158 80.2022 121.405 80.6967C119.635 81.1955 117.839 81.6161 116.041 82.0029C115.079 82.2079 114.114 82.3897 113.155 82.5947C112.468 82.7405 111.414 82.8166 110.854 83.2689C110.235 83.7656 110.06 84.9238 109.825 85.6381C109.517 86.5659 109.227 87.498 108.963 88.4406C108.437 90.3216 108.006 92.2301 107.673 94.1576C107.339 96.0873 107.115 98.0359 106.99 99.9909C106.866 101.944 106.92 103.909 106.72 105.854C106.612 106.885 105.505 107.416 104.687 106.695C104.591 106.61 104.495 106.525 104.399 106.439L104.256 106.308C103.557 105.674 102.879 105.002 102.319 104.245C102.218 104.106 102.12 103.96 102.03 103.812C102.015 103.812 102.002 103.808 101.987 103.797L101.832 103.681C100.124 102.408 97.2689 100.75 95.6028 102.863C95.0719 103.537 94.8001 104.394 94.5745 105.221L94.1787 106.701C93.9226 107.668 93.6816 108.64 93.5407 109.628C93.2216 111.843 93.3822 114.397 94.9057 116.172C95.5141 116.882 96.3528 117.389 97.2885 117.522C97.8106 117.594 98.3261 117.506 98.8437 117.44C99.3697 117.374 99.8766 117.48 100.403 117.429C101.239 117.347 101.605 118.349 101.292 118.979C101.123 119.317 100.924 119.608 100.699 119.856C100.88 120.012 101.054 120.181 101.22 120.359C101.715 120.517 102.158 120.858 102.49 121.308C102.758 121.671 102.898 122.066 102.921 122.483C102.951 122.586 102.976 122.692 102.999 122.8L103.453 123.536C103.552 123.697 103.652 123.857 103.751 124.013C104.905 125.831 106.185 127.369 107.776 128.819C109.308 130.214 110.97 131.463 112.409 132.959L112.579 133.137C113.92 134.551 115.334 136.263 114.809 138.319C114.674 138.848 113.936 139.228 113.455 138.871C111.906 137.721 111.127 135.899 109.813 134.504C108.46 133.067 106.962 131.776 105.606 130.343C104.324 128.99 103.312 127.458 102.549 125.771C102.245 126.107 101.801 126.346 101.187 126.439C100.13 126.598 99.1456 125.979 98.6852 125.063C98.3892 125.194 98.0873 125.313 97.7829 125.406C96.1815 125.896 95.174 124.114 95.7782 122.798C96.1012 122.092 96.5047 121.479 97.0057 120.963C95.4399 120.748 93.847 119.938 92.8181 118.928C90.2366 116.39 89.8817 112.575 90.4627 109.183C90.7711 107.384 91.3033 105.564 91.9944 103.876C92.1146 103.582 92.2437 103.286 92.385 102.994C92.3068 102.992 92.2266 102.958 92.1759 102.893C91.709 102.254 91.1409 101.732 90.7942 101.018C90.4752 100.363 90.1204 99.6993 89.8688 99.0166C89.3514 97.6196 89.0979 96.0429 88.9289 94.5656C88.5803 91.5411 88.7153 88.5357 89.1782 85.5303C89.966 80.4114 91.8691 75.5127 94.6728 71.2143C94.5202 71.1341 94.3739 71.0372 94.2376 70.9226L94.1702 70.8639L94.0608 70.765C93.2607 70.0407 93.3298 68.6832 94.0608 67.9496L94.2917 67.7181C94.584 67.4275 94.8361 67.1973 95.3083 66.881C95.378 66.8343 95.4492 66.7903 95.5213 66.7493C95.2741 66.2924 95.1883 65.7581 95.3605 65.1686C95.9605 63.1152 98.914 63.1879 100.786 64.0833C102.857 62.2342 105.154 60.629 107.643 59.3292C113.571 56.2351 120.274 54.0772 126.82 52.7584ZM96.1757 106.843C97.2827 106.481 98.7531 107.24 99.7482 107.697C101.009 108.276 102.083 109.132 103.122 110.036C103.64 110.489 103.732 111.228 103.604 111.86C103.591 111.924 103.578 111.989 103.563 112.055C103.426 112.729 102.674 113.259 102.009 113.24C100.616 113.202 99.9531 112 99.1649 110.981C99.0721 111.146 98.9559 111.298 98.8121 111.412L98.7149 111.488C98.3879 111.738 98.0273 111.937 97.5952 111.917C97.2888 111.903 96.9954 111.824 96.7247 111.683C96.0487 111.326 95.751 110.451 95.9346 109.738C96.0487 109.29 96.3107 108.939 96.6529 108.696L96.5253 108.609C96.2524 108.419 96.0034 108.219 95.8094 107.923L95.7656 107.853H95.7825C95.5712 107.49 95.7088 106.995 96.1757 106.843Z" fill="black"/>
<path fill-rule="evenodd" clip-rule="evenodd" d="M143.152 128.274C141.732 127.694 140.465 126.728 139.538 125.493C139.216 125.063 139.133 124.61 139.2 124.195C139.276 123.729 139.552 123.306 139.928 123.023C140.305 122.739 140.777 122.598 141.233 122.67C141.63 122.732 142.024 122.949 142.337 123.399L142.402 123.489C142.953 124.235 143.67 124.846 144.488 125.241C145.276 125.621 146.158 125.798 147.07 125.695C148.807 125.498 150.005 124.559 151.278 123.282C151.436 123.121 151.593 122.955 151.752 122.786C151.852 122.633 151.991 122.534 152.146 122.483C152.317 122.425 152.511 122.429 152.689 122.491C152.86 122.55 153.013 122.664 153.116 122.814C153.213 122.958 153.268 123.135 153.251 123.339C153.134 124.661 152.443 125.842 151.461 126.769C150.37 127.799 148.924 128.511 147.563 128.761C146.064 129.036 144.536 128.839 143.152 128.274V128.274ZM148.271 107.866C149.866 108.836 152.297 111.098 150.581 113.503C148.561 115.624 145.652 113.193 144.219 112.093C142.89 111.241 141.396 113.433 142.63 114.428C152.987 122.099 157.19 108.12 149.078 106.726C148.185 106.572 147.853 107.566 148.271 107.866ZM129.711 98.9429C129.887 96.7541 133.219 96.257 133.551 98.4229C133.847 100.363 133.498 102.145 132.624 103.892C131.79 105.561 129.692 104.783 129.533 103.263C129.32 101.226 129.601 100.304 129.711 98.9429ZM155.077 97.9739C155.541 97.3652 156.212 96.9497 157.016 97.1845C159.526 97.9185 158.786 101.485 157.905 103.22C157.425 104.163 155.877 104.402 155.177 103.572C154.036 102.219 153.49 99.5157 154.94 98.1825C154.979 98.1136 155.023 98.044 155.077 97.9739ZM132.589 89.3654L132.986 89.2959C134.213 89.0836 135.738 88.8796 136.606 89.8665C137.067 90.3898 137.225 91.3624 136.606 91.8633C135.518 92.7446 134.314 92.4031 133.01 92.4777C131.935 92.5394 130.902 92.7174 129.867 93.0135C127.595 93.663 125.744 94.8486 123.804 96.1505C123.55 96.3213 123.29 95.9956 123.411 95.7574C124.531 93.563 126.701 91.7604 128.875 90.6616C130.036 90.0751 131.305 89.5885 132.589 89.3654ZM152.788 88.3823L153.091 88.4445C156.395 89.1353 160.687 90.5153 162.251 93.7615C162.311 94.2205 162.248 94.3189 162.197 94.3832L162.18 94.4046C162.138 94.4595 162.104 94.5351 161.905 94.5976C161.85 94.5844 161.794 94.5705 161.738 94.5557C161.021 94.3677 160.453 94.1087 159.904 93.84L159.308 93.5465C158.617 93.2076 157.92 92.881 157.182 92.6399C155.605 92.1255 153.984 91.7631 152.337 91.5696C151.98 91.5277 151.636 91.4072 151.365 91.2006C151.108 91.0046 150.911 90.7332 150.822 90.3724C150.705 89.9056 150.739 89.5521 150.989 89.1309C151.177 88.8146 151.447 88.5953 151.756 88.4694C152.072 88.3411 152.431 88.3108 152.788 88.3823Z" fill="black"/>
<path fill-rule="evenodd" clip-rule="evenodd" d="M129.449 129.598C131.159 125.59 134.893 122.644 139.191 121.566C142.347 120.777 145.66 120.803 148.877 121.116C150.563 121.279 152.371 121.412 153.96 122.038C155.317 122.573 156.422 123.585 157.254 124.772C158.243 126.179 158.916 127.789 159.389 129.439C159.456 129.674 159.519 129.91 159.578 130.148C159.372 131.393 158.936 132.453 157.783 133.235C156.658 134 155.316 134.313 153.978 134.424C153.847 134.361 153.72 134.296 153.603 134.229C151.518 133.035 150.051 130.213 147.419 130.595C145.07 130.936 143.524 133.893 142.127 135.626C137.644 136.149 133.164 134.801 129.516 132.236C129.33 131.359 129.32 130.473 129.449 129.598M162.625 126.557C162.266 125.551 161.814 124.575 161.279 123.657C159.509 120.619 156.791 118.198 153.565 116.814C145.934 113.546 136.06 115.85 129.897 121.211C127.792 123.044 125.663 125.737 125.019 128.634C124.827 128.672 124.645 128.772 124.496 128.913C120.043 126.108 115.458 123.41 111.87 119.523C109.264 116.698 107.452 113.355 106.342 109.682C106.251 109.38 105.764 109.424 105.779 109.759C105.783 109.837 105.787 109.915 105.791 109.993C105.745 109.849 105.526 109.923 105.509 110.063C104.912 114.525 104.165 119.256 104.853 123.741C105.264 126.418 106.479 128.377 108.104 130.493C109.845 132.761 111.815 134.87 113.83 136.893C115.109 138.177 116.444 139.658 118.01 140.6C119.831 141.694 121.896 142.525 123.839 143.369C125.816 144.23 127.823 145.026 129.867 145.716C133.954 147.099 138.178 148.056 142.476 148.475C145.917 148.809 149.85 149.173 153.148 147.878C155.675 146.886 157.715 145.092 159.334 142.933C161.095 140.583 162.488 137.905 163.258 135.082C164.058 132.149 162.793 127.03 162.625 126.557" fill="black"/>
</svg>
